<?xml version="1.0" standalone="no"?>
<!DOCTYPE svg PUBLIC "-//W3C//DTD SVG 20010904//EN"
 "http://www.w3.org/TR/2001/REC-SVG-20010904/DTD/svg10.dtd">
<svg version="1.0" xmlns="http://www.w3.org/2000/svg"
 width="260.000000pt" height="260.000000pt" viewBox="0 0 260.000000 260.000000"
 preserveAspectRatio="xMidYMid meet">
<metadata>
Created by potrace 1.14, written by Peter Selinger 2001-2017
</metadata>
<g transform="translate(0.000000,260.000000) scale(0.100000,-0.100000)"
fill="#000000" stroke="none">
<path d="M2455 2590 c3 -6 -1 -7 -9 -4 -9 3 -16 1 -16 -5 0 -6 4 -11 8 -11 11
0 9 -40 -1 -57 -5 -7 -5 -19 -1 -25 5 -10 4 -10 -6 -1 -10 9 -16 8 -29 -6 -9
-9 -13 -12 -8 -5 5 8 -1 12 -18 12 -14 0 -25 -5 -25 -10 0 -5 5 -6 10 -3 6 3
10 1 10 -4 0 -14 -6 -14 -30 -1 -14 7 -17 6 -16 -8 0 -10 -5 -16 -14 -14 -13
3 -13 1 -1 -10 11 -10 14 -10 18 0 3 6 10 12 16 12 7 -1 2 -9 -11 -20 -14 -11
-20 -24 -16 -31 4 -7 3 -9 -3 -6 -14 9 -47 -29 -40 -46 5 -14 -4 -17 -56 -18
-22 -1 -25 -4 -16 -15 13 -16 -2 -19 -17 -4 -7 7 -9 1 -6 -20 4 -26 2 -29 -14
-24 -15 5 -16 4 -5 -4 13 -9 12 -13 -5 -29 -11 -10 -15 -15 -10 -10 6 4 15 7
20 7 17 0 -27 -27 -46 -29 -41 -3 -48 -5 -48 -11 0 -3 -9 -16 -20 -28 -12 -12
-17 -22 -12 -22 5 0 16 10 24 22 11 17 16 19 23 8 5 -8 4 -11 -2 -7 -6 4 -18
-9 -29 -28 -15 -28 -21 -32 -33 -22 -12 10 -13 9 -7 -1 5 -9 -1 -23 -15 -39
-13 -15 -19 -23 -12 -19 6 3 15 1 19 -6 4 -7 4 -10 -1 -6 -4 4 -14 3 -21 -3
-8 -7 -14 -6 -20 2 -5 8 -3 10 7 4 8 -5 10 -4 6 0 -17 19 -34 13 -31 -11 2
-21 0 -23 -19 -12 -20 10 -21 10 -8 -6 12 -14 12 -16 -2 -11 -8 4 -18 1 -23
-6 -5 -8 -3 -10 6 -4 8 5 11 3 8 -6 -3 -8 -11 -13 -17 -11 -7 1 -10 -2 -6 -8
3 -6 11 -8 16 -5 5 4 9 1 9 -4 0 -10 -22 -16 -43 -12 -5 1 -6 -3 -2 -9 3 -6
12 -8 18 -4 7 3 4 -1 -5 -9 -10 -8 -15 -16 -12 -19 3 -4 1 -9 -5 -13 -6 -3
-11 1 -11 10 0 9 -5 13 -10 10 -6 -4 -8 -11 -5 -16 3 -5 -2 -6 -11 -2 -13 5
-15 3 -10 -8 4 -8 1 -6 -7 4 -13 15 -15 15 -20 3 -4 -9 1 -20 11 -25 24 -14 5
-13 -21 1 -20 10 -21 10 -8 -5 12 -15 11 -17 -3 -17 -9 0 -16 -5 -16 -11 0 -6
8 -8 18 -5 16 6 16 5 0 -8 -10 -7 -18 -21 -18 -31 0 -13 -3 -15 -13 -7 -10 8
-13 6 -13 -8 0 -10 5 -16 11 -13 5 3 5 0 -2 -7 -9 -10 -15 -10 -28 4 -22 22
-28 20 -15 -5 10 -18 10 -19 -8 -10 -15 8 -23 6 -37 -9 -10 -11 -14 -20 -10
-20 5 0 0 -7 -11 -16 -10 -8 -14 -13 -7 -10 7 4 11 -1 10 -14 -1 -15 -6 -19
-22 -14 -20 6 -20 6 0 -11 11 -9 15 -14 10 -12 -6 3 -22 -4 -35 -15 -14 -11
-19 -16 -11 -12 9 4 12 3 7 -4 -5 -8 -15 -8 -32 -2 -32 12 -43 13 -25 1 20
-13 -4 -42 -27 -34 -13 4 -12 2 3 -10 18 -14 18 -16 3 -17 -15 0 -16 -4 -8
-25 9 -24 9 -25 -13 -14 -21 12 -21 11 -7 -6 9 -11 10 -16 3 -11 -7 4 -13 3
-13 -3 0 -6 -7 -8 -15 -5 -8 4 -15 1 -15 -5 0 -6 6 -11 13 -11 8 0 8 -3 -2 -9
-9 -6 -24 -5 -39 0 -22 8 -23 8 -12 -6 11 -13 10 -15 -1 -10 -8 3 -23 -2 -34
-10 -20 -16 -19 -16 2 -6 18 9 21 8 18 -7 -1 -10 -9 -16 -19 -14 -15 3 -16 0
-5 -20 11 -21 11 -22 -4 -10 -13 11 -15 10 -10 -7 4 -15 0 -21 -13 -23 -34 -2
-39 -3 -51 -11 -7 -5 -13 -14 -13 -20 0 -7 4 -6 11 3 9 12 10 12 5 -3 -3 -10
-6 -21 -6 -23 0 -2 -5 -4 -11 -4 -5 0 -7 5 -3 11 4 7 1 10 -7 7 -8 -3 -13 -11
-11 -18 2 -7 -3 -10 -12 -7 -10 4 -13 1 -9 -8 3 -8 9 -13 13 -10 5 3 6 -4 3
-16 -4 -16 -8 -17 -14 -7 -6 9 -9 2 -9 -20 0 -20 -4 -31 -10 -27 -6 4 -7 11
-4 17 4 7 2 8 -4 4 -6 -4 -9 -13 -6 -20 3 -8 2 -16 -3 -19 -14 -8 -53 12 -53
28 0 8 -5 15 -11 15 -7 0 -9 10 -7 25 4 21 3 23 -9 14 -11 -10 -12 -8 -7 6 5
13 4 16 -5 11 -7 -5 -10 -2 -9 6 2 7 -3 12 -10 10 -8 -1 -11 2 -7 8 5 8 11 7
21 -1 8 -6 17 -10 20 -7 2 3 -7 13 -22 23 -15 9 -23 12 -20 6 4 -6 2 -11 -3
-11 -10 0 -15 14 -12 33 1 5 -3 6 -8 2 -6 -3 -9 -11 -7 -18 1 -7 1 -9 -1 -4
-3 4 -9 5 -14 2 -5 -4 -6 1 -3 10 5 11 2 14 -11 8 -15 -5 -17 -2 -13 20 3 15
2 24 -2 22 -4 -3 -15 4 -24 14 -13 14 -14 21 -5 27 8 5 10 3 4 -6 -6 -9 -4
-11 5 -5 9 6 11 4 5 -5 -5 -9 -4 -11 4 -6 8 6 9 12 2 20 -6 7 -7 17 -3 21 4 5
2 5 -5 1 -7 -4 -18 4 -27 21 -8 15 -15 22 -16 16 0 -7 -5 -13 -11 -13 -5 0 -7
5 -4 11 4 6 -1 6 -12 -2 -16 -9 -24 -9 -39 0 -15 10 -15 11 -2 7 10 -3 20 0
24 7 4 7 4 9 -1 5 -5 -5 -15 1 -22 12 -8 11 -19 17 -25 14 -7 -5 -8 -2 -3 7
12 18 14 49 3 43 -4 -3 -8 0 -8 5 0 6 -5 11 -10 11 -6 0 -3 -12 6 -27 12 -19
7 -16 -15 9 -18 21 -35 37 -39 37 -20 -3 -32 2 -27 12 4 6 0 9 -8 7 -9 -2 -16
2 -17 7 -1 6 -8 17 -15 25 -13 15 -15 19 -15 41 0 5 -5 7 -12 3 -7 -4 -8 -3
-4 5 6 9 11 9 22 0 12 -10 13 -9 8 5 -3 9 -10 16 -15 16 -5 0 -8 3 -8 8 4 26
-2 33 -16 18 -15 -15 -50 -12 -40 4 7 11 -22 21 -40 14 -8 -4 -15 -1 -15 6 0
6 5 8 10 5 6 -3 10 -2 10 2 0 5 -9 14 -20 21 -12 7 -18 16 -15 21 2 5 -2 14
-10 21 -8 7 -15 19 -15 27 0 10 -6 13 -16 9 -8 -3 -12 -2 -9 4 11 17 24 11 40
-20 9 -16 21 -30 28 -30 8 0 7 4 -3 10 -8 5 -11 10 -7 10 5 0 1 7 -7 16 -9 8
-14 19 -11 24 3 4 -10 7 -28 5 -44 -4 -67 3 -67 22 0 9 -8 22 -17 30 -10 8
-13 12 -7 9 6 -3 11 1 11 8 0 8 -7 12 -15 8 -10 -4 -13 -1 -8 7 16 25 14 59
-3 56 -9 -1 -22 2 -28 8 -7 5 -13 7 -13 3 0 -4 -12 2 -27 11 -15 10 -24 12
-20 6 5 -8 3 -13 -4 -13 -6 0 -9 8 -6 20 3 11 0 23 -5 27 -6 3 -8 2 -5 -4 3
-5 0 -10 -7 -10 -16 0 -9 37 8 37 6 0 3 7 -6 14 -10 7 -14 17 -10 21 4 5 1 5
-6 1 -10 -6 -10 -11 -1 -22 7 -8 7 -14 1 -14 -5 0 -20 19 -31 43 -12 23 -20
34 -17 25 4 -14 1 -16 -17 -9 -12 4 -29 6 -37 4 -10 -3 -9 0 3 7 18 12 15 30
-6 30 -7 0 -6 -4 3 -10 8 -5 10 -10 4 -10 -6 0 -17 7 -24 15 -7 8 -9 15 -5 15
4 0 1 7 -6 16 -12 15 -11 16 11 11 14 -4 19 -4 12 -1 -6 3 -9 11 -5 17 4 6 0
8 -9 5 -8 -4 -21 -2 -29 4 -11 8 -10 9 3 4 10 -3 18 -1 18 4 0 6 -7 10 -16 10
-8 0 -12 5 -9 10 3 6 1 10 -5 10 -6 0 -8 5 -4 12 4 7 3 8 -5 4 -6 -4 -9 -11
-7 -15 3 -4 -4 -7 -14 -8 -11 -1 -22 2 -25 8 -3 5 1 6 9 3 9 -3 16 -2 16 4 0
11 -25 10 -36 -1 -14 -13 -24 -7 -25 16 -1 17 -2 18 -6 4 -3 -10 -9 -14 -16
-10 -7 4 -5 -2 3 -12 9 -11 10 -16 3 -11 -10 6 -13 -229 -13 -1158 l0 -1166
1300 0 1300 0 0 1300 0 1300 -76 0 c-47 0 -73 -4 -69 -10z m-163 -232 c-7 -7
-12 -8 -12 -2 0 6 3 14 7 17 3 4 9 5 12 2 2 -3 -1 -11 -7 -17z m-175 -172 c0
-8 -6 -12 -15 -9 -11 5 -11 7 0 14 7 5 13 9 14 9 0 0 1 -6 1 -14z m-81 -108
c4 -7 3 -8 -4 -4 -7 4 -12 2 -12 -3 0 -6 -5 -11 -11 -11 -8 0 -8 5 1 15 15 18
17 18 26 3z m-1678 -39 c3 -11 1 -11 -6 -1 -5 7 -17 10 -28 6 -16 -5 -16 -4
-4 5 18 13 32 10 38 -10z m44 -3 c3 2 8 -2 11 -10 4 -9 1 -18 -5 -22 -6 -4 -8
-3 -4 4 3 6 -3 13 -14 17 -11 3 -20 11 -20 17 0 7 4 7 13 -1 8 -6 16 -8 19 -5z
m271 -301 c-3 -9 -8 -14 -10 -11 -3 3 -2 9 2 15 9 16 15 13 8 -4z m1002 5 c4
-6 1 -9 -7 -8 -7 2 -12 -3 -10 -10 1 -8 -2 -11 -8 -7 -8 5 -7 11 1 21 14 17
16 17 24 4z m-65 -114 c0 -3 -4 -8 -10 -11 -5 -3 -10 -1 -10 4 0 6 5 11 10 11
6 0 10 -2 10 -4z m-680 -165 c1 9 4 8 11 -4 6 -10 8 -21 5 -24 -3 -4 -6 -1 -6
6 0 7 -4 10 -9 6 -5 -3 -12 -1 -16 5 -4 6 -11 7 -17 4 -7 -4 -8 -2 -4 5 6 9
11 9 22 0 11 -9 14 -8 14 2z m407 -135 c5 -5 3 -6 -5 -2 -7 4 -19 3 -26 -3
-10 -9 -15 -8 -19 2 -6 15 36 18 50 3z"/>
<path d="M2425 2540 c-3 -5 -3 -10 2 -10 4 0 1 -5 -7 -11 -12 -8 -12 -10 -1
-7 8 2 15 12 17 21 3 19 -2 22 -11 7z"/>
<path d="M2240 2350 c-8 -5 -12 -12 -9 -15 4 -3 12 1 19 10 14 17 11 19 -10 5z"/>
<path d="M1910 2056 c0 -2 8 -10 18 -17 15 -13 16 -12 3 4 -13 16 -21 21 -21
13z"/>
<path d="M466 1918 c3 -4 9 -8 15 -8 5 0 9 4 9 8 0 5 -7 9 -15 9 -8 0 -12 -4
-9 -9z"/>
<path d="M565 1820 c4 -6 11 -8 16 -5 14 9 11 15 -7 15 -8 0 -12 -5 -9 -10z"/>
<path d="M706 1681 c-3 -5 1 -14 9 -21 8 -7 12 -17 8 -23 -4 -6 -1 -7 6 -3 9
6 8 12 -4 26 -13 14 -13 19 -3 23 9 4 9 6 1 6 -6 1 -14 -3 -17 -8z"/>
<path d="M786 1621 c-3 -5 1 -14 8 -20 10 -9 16 -9 21 -1 4 6 4 14 1 17 -3 4
-6 1 -6 -6 0 -7 -5 -9 -10 -6 -6 4 -8 11 -5 16 4 5 4 9 1 9 -3 0 -7 -4 -10 -9z"/>
<path d="M1410 1481 c0 -6 4 -13 10 -16 6 -3 7 1 4 9 -7 18 -14 21 -14 7z"/>
<path d="M1144 1198 c-4 -7 -4 -10 1 -6 4 4 15 2 24 -5 14 -11 14 -10 2 6 -16
20 -18 21 -27 5z"/>
</g>
</svg>
